<svg width="150" height="40" viewBox="0 0 150 40" fill="none" xmlns="http://www.w3.org/2000/svg">
  <path d="M20 0C31.0457 0 40 8.9543 40 20C40 31.0457 31.0457 40 20 40C8.9543 40 0 31.0457 0 20C0 8.9543 8.9543 0 20 0ZM26.3062 11.5952C25.1673 11.5952 24.2456 12.5169 24.2456 13.6558C24.2456 14.7946 25.1673 15.7164 26.3062 15.7164C27.445 15.7164 28.3668 14.7946 28.3668 13.6558C28.3668 12.5169 27.445 11.5952 26.3062 11.5952ZM13.6938 11.5952C12.555 11.5952 11.6332 12.5169 11.6332 13.6558C11.6332 14.7946 12.555 15.7164 13.6938 15.7164C14.8327 15.7164 15.7544 14.7946 15.7544 13.6558C15.7544 12.5169 14.8327 11.5952 13.6938 11.5952ZM20 24.6836C16.6863 24.6836 14 21.9974 14 18.6836H26C26 21.9974 23.3137 24.6836 20 24.6836Z" fill="#7C3AED"/>
  <path d="M60 20C60 31.0457 51.0457 40 40 40C28.9543 40 20 31.0457 20 20C20 8.9543 28.9543 0 40 0C51.0457 0 60 8.9543 60 20Z" fill="#F8A39D"/>
  <text x="70" y="28" font-family="Inter" font-size="24" font-weight="600" fill="#1F2937">Jarvey</text>
</svg>